<svg width="79" height="26" viewBox="0 0 79 26" fill="none" xmlns="http://www.w3.org/2000/svg">
<rect width="79" height="26" rx="4" fill="#F71412"/>
<g clip-path="url(#clip0)">
<path d="M12.6794 9.72704C12.6794 8.22355 11.4561 7 9.95259 7C8.44907 7 7.22595 8.22355 7.22595 9.72704C7.22595 11.2301 8.44907 12.4532 9.95259 12.4532C11.4561 12.4533 12.6794 11.2302 12.6794 9.72704ZM8.58045 9.72704C8.58045 8.97001 9.19596 8.3545 9.95259 8.3545C10.7092 8.3545 11.3249 8.97001 11.3249 9.72704C11.3249 10.4832 10.7092 11.0987 9.95259 11.0987C9.19596 11.0987 8.58045 10.4832 8.58045 9.72704Z" fill="white"/>
<path d="M16.0478 13.5468C14.5443 13.5468 13.3212 14.7699 13.3212 16.273C13.3212 17.7765 14.5443 19 16.0478 19C17.5513 19 18.7745 17.7765 18.7745 16.273C18.7745 14.7698 17.5513 13.5468 16.0478 13.5468ZM16.0478 17.6455C15.2912 17.6455 14.6757 17.03 14.6757 16.273C14.6757 15.5168 15.2912 14.9013 16.0478 14.9013C16.8044 14.9013 17.42 15.5168 17.42 16.273C17.4199 17.03 16.8044 17.6455 16.0478 17.6455Z" fill="white"/>
<path d="M16.1319 7.34965C15.7781 7.15343 15.3308 7.28003 15.1335 7.63409L9.56727 17.6288C9.36997 17.9828 9.49721 18.4299 9.85144 18.6275C9.96454 18.6901 10.0871 18.7201 10.2079 18.7201C10.4656 18.7201 10.7157 18.5843 10.8499 18.3431L16.4161 8.34836C16.6134 7.99427 16.4862 7.5472 16.1319 7.34965Z" fill="white"/>
</g>
<path d="M33.9917 14.9912C33.8986 15.9772 33.5347 16.7474 32.8999 17.3018C32.2651 17.8519 31.4209 18.127 30.3672 18.127C29.6309 18.127 28.9813 17.9535 28.4185 17.6064C27.8599 17.2552 27.4282 16.758 27.1235 16.1147C26.8188 15.4715 26.6602 14.7246 26.6475 13.874V13.0107C26.6475 12.139 26.8019 11.3709 27.1108 10.7065C27.4198 10.0422 27.862 9.53011 28.4375 9.17041C29.0173 8.81071 29.6859 8.63086 30.4434 8.63086C31.4632 8.63086 32.2842 8.90804 32.9062 9.4624C33.5283 10.0168 33.8901 10.7996 33.9917 11.811H32.3921C32.3159 11.1466 32.1213 10.6685 31.8081 10.3765C31.4992 10.0802 31.0443 9.93213 30.4434 9.93213C29.7451 9.93213 29.2077 10.1882 28.8311 10.7002C28.4587 11.208 28.2682 11.9549 28.2598 12.9409V13.7598C28.2598 14.7585 28.4375 15.5202 28.793 16.0449C29.1527 16.5697 29.6774 16.832 30.3672 16.832C30.9977 16.832 31.4717 16.6903 31.7891 16.4067C32.1064 16.1232 32.3075 15.6514 32.3921 14.9912H33.9917ZM37.7241 15.2832H36.9434V18H35.4009V11.1318H36.9434V13.874H37.6226L39.5205 11.1318H41.4248L38.9429 14.4199L41.6343 18H39.6284L37.7241 15.2832ZM46.7695 11.1318H48.3057V18H46.7695V13.417L44.0781 18H42.542V11.1318H44.0781V15.7148L46.7695 11.1318ZM49.9751 16.7686C50.4025 16.2904 50.6882 15.8376 50.832 15.4102C50.9801 14.9785 51.069 14.4284 51.0986 13.7598L51.1875 11.1318H55.9546V16.7686H56.9067V20.0439H55.3706V18H50.9653V20.0439H49.4038L49.4102 16.7686H49.9751ZM51.7842 16.7686H54.4185V12.4585H52.6855L52.6411 13.7725C52.5819 15.0335 52.2962 16.0322 51.7842 16.7686ZM60.3345 15.2832H59.5537V18H58.0112V11.1318H59.5537V13.874H60.2329L62.1309 11.1318H64.0352L61.5532 14.4199L64.2446 18H62.2388L60.3345 15.2832ZM69.1958 18C69.1281 17.8688 69.0688 17.6551 69.0181 17.3589C68.5272 17.8709 67.9263 18.127 67.2153 18.127C66.5256 18.127 65.9627 17.9302 65.5269 17.5366C65.091 17.1431 64.873 16.6564 64.873 16.0767C64.873 15.3446 65.1439 14.7839 65.6855 14.3945C66.2314 14.001 67.0101 13.8042 68.0215 13.8042H68.9673V13.3535C68.9673 12.998 68.8678 12.7145 68.6689 12.5029C68.4701 12.2871 68.1675 12.1792 67.7612 12.1792C67.41 12.1792 67.1222 12.2681 66.8979 12.4458C66.6737 12.6193 66.5615 12.8415 66.5615 13.1123H65.019C65.019 12.7357 65.1439 12.3844 65.3936 12.0586C65.6432 11.7285 65.9818 11.4704 66.4092 11.2842C66.8408 11.098 67.3211 11.0049 67.8501 11.0049C68.6541 11.0049 69.2952 11.208 69.7734 11.6143C70.2516 12.0163 70.4971 12.5833 70.5098 13.3154V16.4131C70.5098 17.0309 70.5965 17.5239 70.77 17.8921V18H69.1958ZM67.501 16.8892C67.8057 16.8892 68.0913 16.8151 68.3579 16.667C68.6287 16.5189 68.8319 16.32 68.9673 16.0703V14.7754H68.1357C67.5645 14.7754 67.1349 14.8748 66.8472 15.0737C66.5594 15.2726 66.4155 15.554 66.4155 15.918C66.4155 16.2142 66.5129 16.4512 66.7075 16.6289C66.9064 16.8024 67.1709 16.8892 67.501 16.8892Z" fill="white"/>
<defs>
<clipPath id="clip0">
<rect width="12" height="12" fill="white" transform="translate(7 7)"/>
</clipPath>
</defs>
</svg>
